<?xml version="1.0" encoding="utf-8"?>
<!-- Generator: Adobe Illustrator 16.0.0, SVG Export Plug-In . SVG Version: 6.00 Build 0)  -->
<!DOCTYPE svg PUBLIC "-//W3C//DTD SVG 1.1//EN" "http://www.w3.org/Graphics/SVG/1.1/DTD/svg11.dtd">
<svg version="1.1" id="Layer_1" xmlns="http://www.w3.org/2000/svg" xmlns:xlink="http://www.w3.org/1999/xlink" x="0px" y="0px"
	 width="196px" height="97px" viewBox="0 0 196 97" enable-background="new 0 0 196 97" xml:space="preserve">
<g opacity="0.5">
	<g>
		<defs>
			<path id="SVGID_1_" d="M-444.705,400.681c0,0,0,0.01,0,0.02c-0.04,33.439-27.15,60.529-60.62,60.57
				c-33.48,0.01-60.63-27.11-60.64-60.57c0-33.46,27.14-60.59,60.62-60.6C-471.855,340.101-444.705,367.22-444.705,400.681z"/>
		</defs>
		<clipPath id="SVGID_2_">
			<use xlink:href="#SVGID_1_"  overflow="visible"/>
		</clipPath>
		<g clip-path="url(#SVGID_2_)">
			<g>
			</g>
		</g>
	</g>
	<g>
		<defs>
			<path id="SVGID_3_" d="M-541.421,279.157c0,30.961-25.117,56.059-56.1,56.059s-56.1-25.098-56.1-56.059
				s25.117-56.059,56.1-56.059c30.978-0.006,56.094,25.084,56.1,56.038C-541.421,279.144-541.421,279.15-541.421,279.157z"/>
		</defs>
		<clipPath id="SVGID_4_">
			<use xlink:href="#SVGID_3_"  overflow="visible"/>
		</clipPath>
		<g clip-path="url(#SVGID_4_)">
			<g>
			</g>
		</g>
	</g>
	<g>
		<defs>
			<path id="SVGID_5_" d="M-253.842,393.033c0.005,30.96-25.107,56.063-56.09,56.067c-30.983,0.006-56.105-25.086-56.11-56.048
				c-0.006-30.944,25.082-56.041,56.049-56.068c30.978-0.033,56.117,25.034,56.15,55.988
				C-253.842,392.994-253.842,393.014-253.842,393.033z"/>
		</defs>
		<clipPath id="SVGID_6_">
			<use xlink:href="#SVGID_5_"  overflow="visible"/>
		</clipPath>
		<g clip-path="url(#SVGID_6_)">
			<g>
			</g>
		</g>
	</g>
	<g>
		<defs>
			<path id="SVGID_7_" d="M-190.995,329.33c-0.01,13.92-11.31,25.19-25.24,25.18c-13.91-0.02-25.18-11.31-25.16-25.22
				s11.32-25.16,25.24-25.141C-202.255,304.17-190.995,315.44-190.995,329.33z"/>
		</defs>
		<clipPath id="SVGID_8_">
			<use xlink:href="#SVGID_7_"  overflow="visible"/>
		</clipPath>
		<g clip-path="url(#SVGID_8_)">
			<g>
			</g>
		</g>
	</g>
	<g>
		<defs>
			<path id="SVGID_9_" d="M-190.995,228.33c-0.01,13.92-11.31,25.19-25.24,25.19c-13.91-0.03-25.18-11.32-25.16-25.23
				c0.02-13.9,11.32-25.16,25.24-25.141C-202.255,203.181-190.995,214.44-190.995,228.33z"/>
		</defs>
		<clipPath id="SVGID_10_">
			<use xlink:href="#SVGID_9_"  overflow="visible"/>
		</clipPath>
		<g clip-path="url(#SVGID_10_)">
			<g>
			</g>
		</g>
	</g>
	<g>
		<defs>
			<path id="SVGID_11_" d="M-140.495,278.83c-0.01,13.899-11.29,25.16-25.2,25.18c-13.92,0-25.2-11.28-25.2-25.18
				c0-13.91,11.28-25.181,25.2-25.181C-151.775,253.649-140.495,264.92-140.495,278.83z"/>
		</defs>
		<clipPath id="SVGID_12_">
			<use xlink:href="#SVGID_11_"  overflow="visible"/>
		</clipPath>
		<g clip-path="url(#SVGID_12_)">
			<g>
			</g>
		</g>
	</g>
	<g>
		<defs>
			<path id="SVGID_13_" d="M-241.565,278.83c-0.01,13.899-11.29,25.17-25.21,25.18c-13.91-0.01-25.19-11.29-25.19-25.19
				c0.01-13.909,11.29-25.18,25.21-25.17C-252.835,253.649-241.565,264.92-241.565,278.83z"/>
		</defs>
		<clipPath id="SVGID_14_">
			<use xlink:href="#SVGID_13_"  overflow="visible"/>
		</clipPath>
		<g clip-path="url(#SVGID_14_)">
			<g>
			</g>
		</g>
	</g>
	<g>
		<defs>
			<path id="SVGID_15_" d="M-407.383,155.888c0,0-88.909-1.07-100.539-2.998l-16.391,30.508c20.24,23.252,41.59,53.281,56.44,53.281
				h120.999c14.87,0,36.2-29.979,56.46-53.281l-16.38-30.508C-318.432,154.817-407.383,155.888-407.383,155.888z"/>
		</defs>
		<clipPath id="SVGID_16_">
			<use xlink:href="#SVGID_15_"  overflow="visible"/>
		</clipPath>
		<g clip-path="url(#SVGID_16_)">
			<g>
			</g>
		</g>
	</g>
	<g>
		<defs>
			<path id="SVGID_17_" d="M-541.425,500.62c-56.49,4.88-128.68,120.439-164.9,128.88c0,0-73.67-6.91-76.58-101.26
				c-1.83-59.97,22.8-159.011,85.55-314.89c2.46-6.311,6.55-11.86,11.84-16.08c2.69-2.08,5.61-3.851,8.7-5.271
				c0,0-49.68,99-46.18,127s172.91,162.01,177.84,166.01C-540.225,489.01-541.425,500.62-541.425,500.62z"/>
		</defs>
		<clipPath id="SVGID_18_">
			<use xlink:href="#SVGID_17_"  overflow="visible"/>
		</clipPath>
		<g clip-path="url(#SVGID_18_)">
			<g>
			</g>
		</g>
	</g>
	<g>
		<defs>
			<path id="SVGID_19_" d="M-33.095,528.24c-0.07,2.21-0.18,4.38-0.32,6.49c-0.14,2.119-0.33,4.189-0.54,6.209
				c-0.22,2.021-0.47,4-0.75,5.931c-7.88,53.47-41.24,72.55-60.7,79.2c-0.23,0.08-0.45,0.149-0.68,0.229
				c-0.23,0.07-0.47,0.15-0.7,0.23c-7.69,2.479-12.89,2.97-12.89,2.97c-0.28-0.07-0.57-0.14-0.86-0.22
				c-0.28-0.08-0.57-0.17-0.87-0.261c-0.3-0.09-0.59-0.189-0.89-0.3c-0.59-0.2-1.2-0.439-1.82-0.71c-0.31-0.13-0.62-0.27-0.94-0.41
				c-0.62-0.29-1.25-0.6-1.9-0.93c-0.59-0.3-1.18-0.63-1.78-0.97c-0.15-0.09-0.3-0.17-0.45-0.271c-0.23-0.14-0.47-0.279-0.71-0.42
				c-0.33-0.2-0.67-0.41-1-0.62c-2.02-1.26-4.11-2.729-6.27-4.37c-1.43-1.09-2.9-2.25-4.39-3.5c-0.38-0.31-0.75-0.619-1.13-0.939
				c-1.01-0.85-2.04-1.74-3.08-2.66c-0.89-0.78-1.78-1.58-2.68-2.41c-0.79-0.72-1.58-1.45-2.38-2.189
				c-2.39-2.221-4.83-4.57-7.32-7.041c-0.83-0.819-1.67-1.649-2.51-2.489c-0.23-0.22-0.46-0.45-0.68-0.681
				c-0.42-0.42-0.84-0.84-1.26-1.26c-0.62-0.629-1.25-1.27-1.88-1.91c-0.64-0.64-1.27-1.289-1.91-1.949
				c-1.52-1.551-3.05-3.131-4.59-4.73c-0.88-0.91-1.76-1.83-2.65-2.75c-0.63-0.65-1.25-1.3-1.88-1.96
				c-0.44-0.46-0.88-0.92-1.33-1.38c-0.88-0.92-1.77-1.85-2.66-2.79c-0.73-0.771-1.47-1.54-2.21-2.319
				c-0.46-0.471-0.92-0.951-1.37-1.431c-0.61-0.63-1.22-1.271-1.82-1.899c-1.82-1.891-3.64-3.801-5.48-5.711
				c-0.79-0.83-1.6-1.67-2.4-2.5c-1.05-1.069-2.09-2.149-3.14-3.229c-0.82-0.86-1.66-1.71-2.49-2.56c-0.57-0.57-1.14-1.15-1.7-1.73
				c-2.34-2.37-4.69-4.73-7.05-7.07c-1.42-1.39-2.84-2.789-4.26-4.17c-0.91-0.89-1.82-1.77-2.74-2.64
				c-0.04-0.03-0.08-0.07-0.11-0.101c-6.18-5.899-12.41-11.539-18.63-16.689c-17.23-14.24-34.4-24.72-50.35-26.58
				c-0.45-0.05-0.89-0.09-1.33-0.13c0,0,0,0,0-0.01c-0.04-0.41-1.11-11.67,3.73-15.601c4.93-4,174.34-138.01,177.84-166.01
				c3.45-27.58-44.69-124.03-46.15-126.931c-0.02-0.049-0.03-0.069-0.03-0.069c3.09,1.42,6.01,3.19,8.7,5.271
				c2.49,1.979,4.7,4.25,6.6,6.77c0.28,0.35,0.55,0.71,0.8,1.08c0.25,0.359,0.51,0.73,0.75,1.1c0.24,0.35,0.46,0.711,0.68,1.07
				c0.13,0.2,0.25,0.4,0.36,0.609c0.18,0.291,0.34,0.58,0.5,0.871c0.21,0.369,0.41,0.739,0.6,1.119c0.57,1.12,1.09,2.28,1.55,3.461
				c8.52,21.159,16.33,41.27,23.48,60.369c0,0.01,0,0.021,0.01,0.03c1.58,4.24,3.13,8.42,4.65,12.56c0,0.01,0,0.03,0.01,0.041
				c5.31,14.5,10.23,28.399,14.76,41.719c0,0.021,0.01,0.041,0.02,0.07c1.28,3.78,2.54,7.53,3.77,11.221c0,0.02,0.01,0.05,0.02,0.07
				c1.22,3.689,2.41,7.34,3.58,10.939c0,0.029,0.01,0.05,0.02,0.07c1.16,3.6,2.28,7.149,3.39,10.66c0,0.02,0.01,0.049,0.02,0.08
				C-41.525,435.84-31.925,489.99-33.095,528.24z"/>
		</defs>
		<clipPath id="SVGID_20_">
			<use xlink:href="#SVGID_19_"  overflow="visible"/>
		</clipPath>
		<g clip-path="url(#SVGID_20_)">
			<g>
			</g>
		</g>
	</g>
</g>
<g opacity="0.2">
	<g>
		<defs>
			<path id="SVGID_21_" d="M-444.705,400.681c0,0,0,0.01,0,0.02c-0.04,33.439-27.15,60.529-60.62,60.57
				c-33.48,0.01-60.63-27.11-60.641-60.57c0-33.46,27.141-60.59,60.62-60.6C-471.855,340.101-444.705,367.22-444.705,400.681z"/>
		</defs>
		<clipPath id="SVGID_22_">
			<use xlink:href="#SVGID_21_"  overflow="visible"/>
		</clipPath>
		<g clip-path="url(#SVGID_22_)">
		</g>
	</g>
	<g>
		<defs>
			<path id="SVGID_23_" d="M-444.775,279.64v0.03c0,8.88-7.22,16.08-16.11,16.07c-8.89,0-16.09-7.21-16.09-16.091
				c0.01-8.879,7.221-16.08,16.101-16.08C-451.985,263.56-444.775,270.76-444.775,279.64z"/>
		</defs>
		<clipPath id="SVGID_24_">
			<use xlink:href="#SVGID_23_"  overflow="visible"/>
		</clipPath>
		<g clip-path="url(#SVGID_24_)">
		</g>
	</g>
	<g>
		<defs>
			<path id="SVGID_25_" d="M-541.422,279.157c0,30.961-25.117,56.059-56.1,56.059c-30.983,0-56.1-25.098-56.1-56.059
				s25.116-56.059,56.1-56.059c30.978-0.006,56.094,25.084,56.1,56.038C-541.422,279.144-541.422,279.15-541.422,279.157z"/>
		</defs>
		<clipPath id="SVGID_26_">
			<use xlink:href="#SVGID_25_"  overflow="visible"/>
		</clipPath>
		<g clip-path="url(#SVGID_26_)">
		</g>
	</g>
	<g>
		<defs>
			<path id="SVGID_27_" d="M-253.843,393.033c0.005,30.96-25.107,56.063-56.09,56.067c-30.983,0.006-56.104-25.086-56.109-56.048
				c-0.006-30.944,25.081-56.041,56.049-56.068c30.978-0.033,56.117,25.034,56.15,55.988
				C-253.843,392.994-253.843,393.014-253.843,393.033z"/>
		</defs>
		<clipPath id="SVGID_28_">
			<use xlink:href="#SVGID_27_"  overflow="visible"/>
		</clipPath>
		<g clip-path="url(#SVGID_28_)">
		</g>
	</g>
	<g>
		<defs>
			<path id="SVGID_29_" d="M-190.995,329.33c-0.01,13.92-11.311,25.19-25.24,25.18c-13.91-0.02-25.18-11.31-25.16-25.22
				c0.021-13.91,11.32-25.16,25.24-25.141C-202.255,304.17-190.995,315.44-190.995,329.33z"/>
		</defs>
		<clipPath id="SVGID_30_">
			<use xlink:href="#SVGID_29_"  overflow="visible"/>
		</clipPath>
		<g clip-path="url(#SVGID_30_)">
		</g>
	</g>
	<g>
		<defs>
			<path id="SVGID_31_" d="M-190.995,228.33c-0.01,13.92-11.311,25.19-25.24,25.19c-13.91-0.03-25.18-11.32-25.16-25.23
				c0.021-13.9,11.32-25.16,25.24-25.141C-202.255,203.181-190.995,214.44-190.995,228.33z"/>
		</defs>
		<clipPath id="SVGID_32_">
			<use xlink:href="#SVGID_31_"  overflow="visible"/>
		</clipPath>
		<g clip-path="url(#SVGID_32_)">
		</g>
	</g>
	<g>
		<defs>
			<path id="SVGID_33_" d="M-140.495,278.83c-0.01,13.899-11.29,25.16-25.2,25.18c-13.92,0-25.2-11.28-25.2-25.18
				c0-13.91,11.28-25.181,25.2-25.181S-140.495,264.92-140.495,278.83z"/>
		</defs>
		<clipPath id="SVGID_34_">
			<use xlink:href="#SVGID_33_"  overflow="visible"/>
		</clipPath>
		<g clip-path="url(#SVGID_34_)">
		</g>
	</g>
	<g>
		<defs>
			<path id="SVGID_35_" d="M-241.565,278.83c-0.01,13.899-11.29,25.17-25.21,25.18c-13.91-0.01-25.19-11.29-25.19-25.19
				c0.011-13.909,11.29-25.18,25.211-25.17C-252.835,253.649-241.565,264.92-241.565,278.83z"/>
		</defs>
		<clipPath id="SVGID_36_">
			<use xlink:href="#SVGID_35_"  overflow="visible"/>
		</clipPath>
		<g clip-path="url(#SVGID_36_)">
		</g>
	</g>
	<g>
		<defs>
			<path id="SVGID_37_" d="M-407.383,155.888c0,0-88.909-1.07-100.539-2.998l-16.391,30.508
				c20.24,23.252,41.591,53.281,56.44,53.281h120.999c14.87,0,36.2-29.979,56.46-53.281l-16.38-30.508
				C-318.433,154.817-407.383,155.888-407.383,155.888z"/>
		</defs>
		<clipPath id="SVGID_38_">
			<use xlink:href="#SVGID_37_"  overflow="visible"/>
		</clipPath>
		<g clip-path="url(#SVGID_38_)">
		</g>
	</g>
	<g>
		<defs>
			<path id="SVGID_39_" d="M-33.095,528.24c-0.07,2.21-0.18,4.38-0.32,6.49c-0.141,2.119-0.33,4.189-0.54,6.209
				c-0.22,2.021-0.47,4-0.75,5.931c-7.88,53.47-41.24,72.55-60.7,79.2c-0.23,0.08-0.45,0.149-0.68,0.229
				c-0.23,0.07-0.471,0.15-0.7,0.23c-7.69,2.479-12.891,2.97-12.891,2.97c-0.279-0.07-0.569-0.14-0.859-0.22
				c-0.28-0.08-0.57-0.17-0.87-0.261c-0.3-0.09-0.59-0.189-0.89-0.3c-0.591-0.2-1.2-0.439-1.82-0.71
				c-0.311-0.13-0.62-0.27-0.94-0.41c-0.62-0.29-1.25-0.6-1.899-0.93c-0.59-0.3-1.181-0.63-1.78-0.97
				c-0.15-0.09-0.3-0.17-0.45-0.271c-0.229-0.14-0.47-0.279-0.71-0.42c-0.33-0.2-0.67-0.41-1-0.62c-2.02-1.26-4.109-2.729-6.27-4.37
				c-1.431-1.09-2.9-2.25-4.391-3.5c-0.38-0.31-0.75-0.619-1.13-0.939c-1.01-0.85-2.04-1.74-3.08-2.66
				c-0.89-0.78-1.779-1.58-2.68-2.41c-0.79-0.72-1.58-1.45-2.38-2.189c-2.391-2.221-4.83-4.57-7.32-7.041
				c-0.83-0.819-1.67-1.649-2.51-2.489c-0.23-0.22-0.46-0.45-0.68-0.681c-0.42-0.42-0.841-0.84-1.261-1.26
				c-0.62-0.629-1.25-1.27-1.88-1.91c-0.64-0.64-1.27-1.289-1.91-1.949c-1.52-1.551-3.05-3.131-4.59-4.73
				c-0.88-0.91-1.76-1.83-2.649-2.75c-0.63-0.65-1.25-1.3-1.88-1.96c-0.44-0.46-0.881-0.92-1.33-1.38
				c-0.881-0.92-1.771-1.85-2.66-2.79c-0.73-0.771-1.471-1.54-2.21-2.319c-0.46-0.471-0.92-0.951-1.37-1.431
				c-0.61-0.63-1.22-1.271-1.82-1.899c-1.82-1.891-3.64-3.801-5.479-5.711c-0.79-0.83-1.601-1.67-2.4-2.5
				c-1.05-1.069-2.09-2.149-3.14-3.229c-0.82-0.86-1.66-1.71-2.49-2.56c-0.57-0.57-1.14-1.15-1.7-1.73
				c-2.34-2.37-4.689-4.73-7.05-7.07c-1.42-1.39-2.84-2.789-4.26-4.17c-0.91-0.89-1.82-1.77-2.74-2.64
				c-0.04-0.03-0.08-0.07-0.11-0.101c-6.18-5.899-12.41-11.539-18.63-16.689c-17.229-14.24-34.399-24.72-50.35-26.58
				c-0.45-0.05-0.891-0.09-1.33-0.13c0,0,0,0,0-0.01c-0.04-0.41-1.11-11.67,3.729-15.601c4.931-4,174.341-138.01,177.841-166.01
				c3.449-27.58-44.69-124.03-46.15-126.931c-0.021-0.049-0.03-0.069-0.03-0.069c3.09,1.42,6.01,3.19,8.7,5.271
				c2.49,1.979,4.7,4.25,6.6,6.77c0.28,0.35,0.551,0.71,0.801,1.08c0.25,0.359,0.51,0.73,0.75,1.1c0.239,0.35,0.46,0.711,0.68,1.07
				c0.13,0.2,0.25,0.4,0.36,0.609c0.18,0.291,0.34,0.58,0.5,0.871c0.21,0.369,0.409,0.739,0.6,1.119c0.57,1.12,1.09,2.28,1.55,3.461
				c8.521,21.159,16.33,41.27,23.48,60.369c0,0.01,0,0.021,0.01,0.03c1.58,4.24,3.13,8.42,4.65,12.56c0,0.01,0,0.03,0.01,0.041
				c5.31,14.5,10.23,28.399,14.76,41.719c0,0.021,0.01,0.041,0.02,0.07c1.281,3.78,2.541,7.53,3.771,11.221
				c0,0.02,0.011,0.05,0.021,0.07c1.22,3.689,2.41,7.34,3.58,10.939c0,0.029,0.01,0.05,0.02,0.07c1.16,3.6,2.28,7.149,3.391,10.66
				c0,0.02,0.01,0.049,0.02,0.08C-41.524,435.84-31.925,489.99-33.095,528.24z"/>
		</defs>
		<clipPath id="SVGID_40_">
			<use xlink:href="#SVGID_39_"  overflow="visible"/>
		</clipPath>
		<g clip-path="url(#SVGID_40_)">
		</g>
	</g>
	<g>
		<defs>
			<path id="SVGID_41_" d="M-541.426,500.62c-56.489,4.88-128.68,120.439-164.899,128.88c0,0-73.67-6.91-76.58-101.26
				c-1.83-59.97,22.8-159.011,85.55-314.89c2.46-6.311,6.55-11.86,11.84-16.08c2.69-2.08,5.61-3.851,8.7-5.271
				c0,0-49.68,99-46.18,127s172.91,162.01,177.84,166.01S-541.426,500.62-541.426,500.62z"/>
		</defs>
		<clipPath id="SVGID_42_">
			<use xlink:href="#SVGID_41_"  overflow="visible"/>
		</clipPath>
		<g clip-path="url(#SVGID_42_)">
		</g>
	</g>
</g>
<path fill="#231F20" d="M23.743,0c13.107,0.006,23.729,10.639,23.723,23.751c-0.005,13.112-10.636,23.737-23.743,23.731
	C10.62,47.477,0,36.849,0,23.741C0.005,10.628,10.634,0,23.743,0z"/>
<path fill="#C4F932" d="M32.523,38.93l-2.786-7.68H17.58l-2.646,7.68H9.441L20.927,8.552h5.603L38.085,38.93H32.523z M23.713,13.114
	h-0.13c-0.076,0.739-0.227,1.468-0.451,2.176L18.982,27h9.321l-4.18-11.71C23.918,14.579,23.78,13.851,23.713,13.114z"/>
<path fill="#231F20" d="M73.244,0c13.113,0,23.743,10.634,23.743,23.751c0,13.118-10.63,23.751-23.743,23.751
	S49.501,36.869,49.501,23.751C49.506,10.636,60.133,0.006,73.244,0z"/>
<path fill="#C4F932" d="M83.477,30.078c0.071,2.476-1.014,4.845-2.937,6.406c-2.151,1.696-4.84,2.561-7.577,2.437h-9.932V8.552
	h9.591c2.438-0.123,4.851,0.538,6.886,1.885c1.638,1.175,2.584,3.088,2.526,5.103c0.024,1.585-0.508,3.128-1.503,4.361
	c-1.027,1.286-2.428,2.222-4.009,2.677v0.091c1.938,0.163,3.754,1.012,5.122,2.396C82.871,26.441,83.527,28.234,83.477,30.078z
	 M76.692,16.512c0.046-1.096-0.453-2.143-1.333-2.797c-1.2-0.742-2.601-1.092-4.009-1.003h-3.267v8.413h3.237
	c1.438,0.098,2.863-0.33,4.009-1.204C76.27,19.046,76.77,17.795,76.692,16.512z M78.175,29.947c0.062-1.323-0.516-2.595-1.553-3.419
	c-1.391-0.902-3.038-1.325-4.691-1.203h-3.848v9.435h4.249c1.528,0.087,3.037-0.38,4.25-1.313
	C77.638,32.599,78.229,31.3,78.175,29.947z"/>
<path fill="#231F20" d="M172.256,0C185.369,0,196,10.634,196,23.751c0,13.118-10.631,23.751-23.744,23.751
	c-13.113,0-23.744-10.634-23.744-23.751C148.513,10.634,159.143,0,172.256,0L172.256,0z"/>
<path fill="#C4F932" d="M174.661,27.922v11.029h-5.011V28.072l-9.872-19.52h5.732l6.114,12.682c0.182,0.359,0.33,0.735,0.44,1.123
	c0.101,0.341,0.17,0.612,0.25,0.832l0,0c0.152-0.664,0.384-1.307,0.692-1.915l6.395-12.722h5.322L174.661,27.922z"/>
<path fill="#231F20" d="M122.745,0c13.113-0.006,23.748,10.624,23.753,23.741c0.006,13.118-10.62,23.756-23.733,23.762
	c-13.113,0.006-23.749-10.624-23.753-23.741c0-0.004,0-0.007,0-0.011C99.017,10.64,109.638,0.011,122.745,0z"/>
<path fill="#C4F932" d="M129.881,38.93l-6.424-11.028c-0.12-0.246-0.22-0.5-0.3-0.762c-0.055-0.259-0.128-0.514-0.221-0.762h-0.09
	c-0.11,0.271-0.191,0.521-0.271,0.772c-0.089,0.26-0.2,0.511-0.331,0.752l-6.545,11.028h-6.133l10.163-15.229l-9.281-15.148h6.204
	l5.412,10.026c0.425,0.715,0.762,1.479,1.002,2.275h0.08c0.301-0.792,0.532-1.313,0.651-1.563c0.121-0.251,2.216-3.81,6.285-10.688
	h5.692l-9.481,15.039l9.602,15.319L129.881,38.93z"/>
<path fill="#5D5D5D" d="M23.743,49.507c13.107,0.006,23.729,10.64,23.723,23.752C47.461,86.371,36.831,96.995,23.723,96.99
	C10.62,96.984,0,86.356,0,73.248c0-13.111,10.626-23.741,23.733-23.741C23.737,49.507,23.74,49.507,23.743,49.507z"/>
<path fill="#E56EBB" d="M32.523,88.438l-2.786-7.68H17.58l-2.646,7.68H9.441l11.486-30.389h5.603l11.556,30.389H32.523z
	 M23.713,62.621h-0.13c-0.078,0.738-0.229,1.467-0.451,2.176l-4.149,11.71h9.321l-4.18-11.71
	C23.919,64.086,23.781,63.357,23.713,62.621z"/>
<path fill="#5D5D5D" d="M73.244,49.498c13.113,0,23.743,10.634,23.743,23.75C96.987,86.366,86.357,97,73.244,97
	S49.501,86.366,49.501,73.248l0,0C49.506,60.133,60.133,49.503,73.244,49.498z"/>
<path fill="#E56EBB" d="M83.477,79.585c0.074,2.477-1.012,4.846-2.937,6.407c-2.15,1.698-4.839,2.566-7.577,2.446h-9.932V58.049
	h9.591c2.439-0.124,4.854,0.541,6.886,1.896c1.645,1.169,2.593,3.086,2.526,5.103c0.022,1.583-0.51,3.122-1.503,4.351
	c-1.024,1.29-2.426,2.226-4.009,2.677v0.111c1.925,0.154,3.729,0.998,5.082,2.376C82.852,75.932,83.523,77.731,83.477,79.585z
	 M76.692,66.01c0.046-1.096-0.453-2.143-1.333-2.797c-1.2-0.741-2.601-1.09-4.009-1.002h-3.267v8.402h3.237
	c1.438,0.099,2.863-0.329,4.009-1.204C76.269,68.537,76.77,67.29,76.692,66.01z M78.175,79.455c0.063-1.324-0.515-2.597-1.553-3.419
	c-1.388-0.909-3.036-1.336-4.691-1.213h-3.848v9.444h4.249c1.528,0.087,3.037-0.379,4.25-1.313
	C77.635,82.104,78.225,80.807,78.175,79.455z"/>
<path fill="#5D5D5D" d="M172.256,49.498c13.112,0,23.744,10.634,23.744,23.75C196,86.366,185.369,97,172.256,97
	c-13.113,0-23.744-10.634-23.744-23.752l0,0C148.519,60.133,159.146,49.503,172.256,49.498z"/>
<path fill="#E56EBB" d="M174.661,77.419v11.028h-5.011V77.54l-9.872-19.48h5.732l6.114,12.672c0.182,0.359,0.33,0.735,0.44,1.123
	c0.101,0.341,0.17,0.612,0.25,0.832l0,0c0.152-0.661,0.384-1.301,0.692-1.904l6.395-12.723h5.322L174.661,77.419z"/>
<path fill="#5D5D5D" d="M122.745,49.498c13.113-0.006,23.748,10.623,23.753,23.741c0.006,13.118-10.62,23.756-23.733,23.762
	S99.017,86.376,99.012,73.259c0-0.004,0-0.007,0-0.011C99.017,60.137,109.638,49.508,122.745,49.498z"/>
<path fill="#E56EBB" d="M129.881,88.438l-6.424-11.028c-0.121-0.249-0.221-0.507-0.3-0.771c-0.056-0.26-0.13-0.514-0.221-0.763
	h-0.09c-0.11,0.281-0.191,0.522-0.271,0.783c-0.089,0.259-0.2,0.511-0.331,0.752l-6.545,11.028h-6.133l10.163-15.25l-9.281-15.14
	h6.194l5.422,10.026c0.42,0.715,0.757,1.475,1.002,2.267h0.08c0.301-0.792,0.532-1.313,0.651-1.563
	c0.121-0.25,2.216-3.801,6.285-10.688h5.692l-9.481,15.039l9.602,15.329L129.881,88.438z"/>
</svg>
