<?xml version="1.0" encoding="utf-8"?>
<!-- Generator: Adobe Illustrator 16.0.0, SVG Export Plug-In . SVG Version: 6.00 Build 0)  -->
<!DOCTYPE svg PUBLIC "-//W3C//DTD SVG 1.1//EN" "http://www.w3.org/Graphics/SVG/1.1/DTD/svg11.dtd">
<svg version="1.1" id="Layer_1" xmlns="http://www.w3.org/2000/svg" xmlns:xlink="http://www.w3.org/1999/xlink" x="0px" y="0px"
	 width="38px" height="38px" viewBox="0 0 38 38" enable-background="new 0 0 38 38" xml:space="preserve">
<g opacity="0.5">
	<g>
		<defs>
			<path id="SVGID_1_" d="M-577.705,159.181c0,0,0,0.01,0,0.02c-0.04,33.439-27.15,60.529-60.62,60.57
				c-33.48,0.01-60.63-27.11-60.64-60.57c0-33.46,27.14-60.59,60.62-60.6C-604.855,98.601-577.705,125.72-577.705,159.181z"/>
		</defs>
		<clipPath id="SVGID_2_">
			<use xlink:href="#SVGID_1_"  overflow="visible"/>
		</clipPath>
		<g clip-path="url(#SVGID_2_)">
			<g>
			</g>
		</g>
	</g>
	<g>
		<defs>
			<path id="SVGID_3_" d="M-674.421,37.657c0,30.961-25.117,56.059-56.1,56.059s-56.1-25.098-56.1-56.059s25.117-56.059,56.1-56.059
				c30.978-0.006,56.094,25.084,56.1,56.038C-674.421,37.644-674.421,37.65-674.421,37.657z"/>
		</defs>
		<clipPath id="SVGID_4_">
			<use xlink:href="#SVGID_3_"  overflow="visible"/>
		</clipPath>
		<g clip-path="url(#SVGID_4_)">
			<g>
			</g>
		</g>
	</g>
	<g>
		<defs>
			<path id="SVGID_5_" d="M-386.842,151.533c0.005,30.96-25.107,56.063-56.09,56.067c-30.983,0.006-56.105-25.086-56.11-56.048
				c-0.006-30.944,25.082-56.041,56.049-56.068c30.978-0.033,56.117,25.034,56.15,55.988
				C-386.842,151.494-386.842,151.514-386.842,151.533z"/>
		</defs>
		<clipPath id="SVGID_6_">
			<use xlink:href="#SVGID_5_"  overflow="visible"/>
		</clipPath>
		<g clip-path="url(#SVGID_6_)">
			<g>
			</g>
		</g>
	</g>
	<g>
		<defs>
			<path id="SVGID_7_" d="M-323.995,87.83c-0.01,13.92-11.31,25.19-25.24,25.18c-13.91-0.02-25.18-11.31-25.16-25.22
				s11.32-25.16,25.24-25.141C-335.255,62.67-323.995,73.94-323.995,87.83z"/>
		</defs>
		<clipPath id="SVGID_8_">
			<use xlink:href="#SVGID_7_"  overflow="visible"/>
		</clipPath>
		<g clip-path="url(#SVGID_8_)">
			<g>
			</g>
		</g>
	</g>
	<g>
		<defs>
			<path id="SVGID_9_" d="M-323.995-13.17c-0.01,13.92-11.31,25.19-25.24,25.19c-13.91-0.03-25.18-11.32-25.16-25.23
				c0.02-13.9,11.32-25.16,25.24-25.141C-335.255-38.319-323.995-27.06-323.995-13.17z"/>
		</defs>
		<clipPath id="SVGID_10_">
			<use xlink:href="#SVGID_9_"  overflow="visible"/>
		</clipPath>
		<g clip-path="url(#SVGID_10_)">
			<g>
			</g>
		</g>
	</g>
	<g>
		<defs>
			<path id="SVGID_11_" d="M-273.495,37.33c-0.01,13.899-11.29,25.16-25.2,25.18c-13.92,0-25.2-11.28-25.2-25.18
				c0-13.91,11.28-25.181,25.2-25.181C-284.775,12.149-273.495,23.42-273.495,37.33z"/>
		</defs>
		<clipPath id="SVGID_12_">
			<use xlink:href="#SVGID_11_"  overflow="visible"/>
		</clipPath>
		<g clip-path="url(#SVGID_12_)">
			<g>
			</g>
		</g>
	</g>
	<g>
		<defs>
			<path id="SVGID_13_" d="M-374.565,37.33c-0.01,13.899-11.29,25.17-25.21,25.18c-13.91-0.01-25.19-11.29-25.19-25.19
				c0.01-13.909,11.29-25.18,25.21-25.17C-385.835,12.149-374.565,23.42-374.565,37.33z"/>
		</defs>
		<clipPath id="SVGID_14_">
			<use xlink:href="#SVGID_13_"  overflow="visible"/>
		</clipPath>
		<g clip-path="url(#SVGID_14_)">
			<g>
			</g>
		</g>
	</g>
	<g>
		<defs>
			<path id="SVGID_15_" d="M-540.383-85.612c0,0-88.909-1.07-100.539-2.998l-16.391,30.508c20.24,23.252,41.59,53.281,56.44,53.281
				h120.999c14.87,0,36.2-29.979,56.46-53.281l-16.38-30.508C-451.432-86.683-540.383-85.612-540.383-85.612z"/>
		</defs>
		<clipPath id="SVGID_16_">
			<use xlink:href="#SVGID_15_"  overflow="visible"/>
		</clipPath>
		<g clip-path="url(#SVGID_16_)">
			<g>
			</g>
		</g>
	</g>
	<g>
		<defs>
			<path id="SVGID_17_" d="M-674.425,259.12c-56.49,4.88-128.68,120.439-164.9,128.88c0,0-73.67-6.91-76.58-101.26
				c-1.83-59.97,22.8-159.011,85.55-314.89c2.46-6.311,6.55-11.86,11.84-16.08c2.69-2.08,5.61-3.851,8.7-5.271
				c0,0-49.68,99-46.18,127s172.91,162.01,177.84,166.01C-673.225,247.51-674.425,259.12-674.425,259.12z"/>
		</defs>
		<clipPath id="SVGID_18_">
			<use xlink:href="#SVGID_17_"  overflow="visible"/>
		</clipPath>
		<g clip-path="url(#SVGID_18_)">
			<g>
			</g>
		</g>
	</g>
	<g>
		<defs>
			<path id="SVGID_19_" d="M-166.095,286.74c-0.07,2.21-0.18,4.38-0.32,6.49c-0.14,2.119-0.33,4.189-0.54,6.209
				c-0.22,2.021-0.47,4-0.75,5.931c-7.88,53.47-41.24,72.55-60.7,79.2c-0.23,0.08-0.45,0.149-0.68,0.229
				c-0.23,0.07-0.47,0.15-0.7,0.23c-7.69,2.479-12.89,2.97-12.89,2.97c-0.28-0.07-0.57-0.14-0.86-0.22
				c-0.28-0.08-0.57-0.17-0.87-0.261c-0.3-0.09-0.59-0.189-0.89-0.3c-0.59-0.2-1.2-0.439-1.82-0.71c-0.31-0.13-0.62-0.27-0.94-0.41
				c-0.62-0.29-1.25-0.6-1.9-0.93c-0.59-0.3-1.18-0.63-1.78-0.97c-0.15-0.09-0.3-0.17-0.45-0.271c-0.23-0.14-0.47-0.279-0.71-0.42
				c-0.33-0.2-0.67-0.41-1-0.62c-2.02-1.26-4.11-2.729-6.27-4.37c-1.43-1.09-2.9-2.25-4.39-3.5c-0.38-0.31-0.75-0.619-1.13-0.939
				c-1.01-0.85-2.04-1.74-3.08-2.66c-0.89-0.78-1.78-1.58-2.68-2.41c-0.79-0.72-1.58-1.45-2.38-2.189
				c-2.39-2.221-4.83-4.57-7.32-7.041c-0.83-0.819-1.67-1.649-2.51-2.489c-0.23-0.22-0.46-0.45-0.68-0.681
				c-0.42-0.42-0.84-0.84-1.26-1.26c-0.62-0.629-1.25-1.27-1.88-1.91c-0.64-0.64-1.27-1.289-1.91-1.949
				c-1.52-1.551-3.05-3.131-4.59-4.73c-0.88-0.91-1.76-1.83-2.65-2.75c-0.63-0.65-1.25-1.3-1.88-1.96
				c-0.44-0.46-0.88-0.92-1.33-1.38c-0.88-0.92-1.77-1.85-2.66-2.79c-0.73-0.771-1.47-1.54-2.21-2.319
				c-0.46-0.471-0.92-0.951-1.37-1.431c-0.61-0.63-1.22-1.271-1.82-1.899c-1.82-1.891-3.64-3.801-5.48-5.711
				c-0.79-0.83-1.6-1.67-2.4-2.5c-1.05-1.069-2.09-2.149-3.14-3.229c-0.82-0.86-1.66-1.71-2.49-2.56c-0.57-0.57-1.14-1.15-1.7-1.73
				c-2.34-2.37-4.69-4.73-7.05-7.07c-1.42-1.39-2.84-2.789-4.26-4.17c-0.91-0.89-1.82-1.77-2.74-2.64
				c-0.04-0.03-0.08-0.07-0.11-0.101c-6.18-5.899-12.41-11.539-18.63-16.689c-17.23-14.24-34.4-24.72-50.35-26.58
				c-0.45-0.05-0.89-0.09-1.33-0.13c0,0,0,0,0-0.01c-0.04-0.41-1.11-11.67,3.73-15.601c4.93-4,174.34-138.01,177.84-166.01
				c3.45-27.58-44.69-124.03-46.15-126.931c-0.02-0.049-0.03-0.069-0.03-0.069c3.09,1.42,6.01,3.19,8.7,5.271
				c2.49,1.979,4.7,4.25,6.6,6.77c0.28,0.35,0.55,0.71,0.8,1.08c0.25,0.359,0.51,0.73,0.75,1.1c0.24,0.35,0.46,0.711,0.68,1.07
				c0.13,0.2,0.25,0.4,0.36,0.609c0.18,0.291,0.34,0.58,0.5,0.871c0.21,0.369,0.41,0.739,0.6,1.119c0.57,1.12,1.09,2.28,1.55,3.461
				c8.52,21.159,16.33,41.27,23.48,60.369c0,0.01,0,0.021,0.01,0.03c1.58,4.24,3.13,8.42,4.65,12.56c0,0.01,0,0.03,0.01,0.041
				c5.31,14.5,10.23,28.399,14.76,41.719c0,0.021,0.01,0.041,0.02,0.07c1.28,3.78,2.54,7.53,3.77,11.221c0,0.02,0.01,0.05,0.02,0.07
				c1.22,3.689,2.41,7.34,3.58,10.939c0,0.029,0.01,0.05,0.02,0.07c1.16,3.6,2.28,7.149,3.39,10.66c0,0.02,0.01,0.049,0.02,0.08
				C-174.525,194.34-164.925,248.49-166.095,286.74z"/>
		</defs>
		<clipPath id="SVGID_20_">
			<use xlink:href="#SVGID_19_"  overflow="visible"/>
		</clipPath>
		<g clip-path="url(#SVGID_20_)">
			<g>
			</g>
		</g>
	</g>
</g>
<g opacity="0.2">
	<g>
		<defs>
			<path id="SVGID_21_" d="M-577.705,159.181c0,0,0,0.01,0,0.02c-0.04,33.439-27.15,60.529-60.62,60.57
				c-33.48,0.01-60.63-27.11-60.641-60.57c0-33.46,27.141-60.59,60.62-60.6C-604.855,98.601-577.705,125.72-577.705,159.181z"/>
		</defs>
		<clipPath id="SVGID_22_">
			<use xlink:href="#SVGID_21_"  overflow="visible"/>
		</clipPath>
		<g clip-path="url(#SVGID_22_)">
			<g>
			</g>
			<g>
			</g>
		</g>
	</g>
	<g>
		<defs>
			<path id="SVGID_23_" d="M-577.775,38.14v0.03c0,8.88-7.22,16.08-16.11,16.07c-8.89,0-16.09-7.21-16.09-16.091
				c0.01-8.879,7.221-16.08,16.101-16.08C-584.985,22.06-577.775,29.26-577.775,38.14z"/>
		</defs>
		<clipPath id="SVGID_24_">
			<use xlink:href="#SVGID_23_"  overflow="visible"/>
		</clipPath>
		<g clip-path="url(#SVGID_24_)">
			<g>
			</g>
			<g>
			</g>
		</g>
	</g>
	<g>
		<defs>
			<path id="SVGID_25_" d="M-674.422,37.657c0,30.961-25.117,56.059-56.1,56.059c-30.983,0-56.1-25.098-56.1-56.059
				s25.116-56.059,56.1-56.059c30.978-0.006,56.094,25.084,56.1,56.038C-674.422,37.644-674.422,37.65-674.422,37.657z"/>
		</defs>
		<clipPath id="SVGID_26_">
			<use xlink:href="#SVGID_25_"  overflow="visible"/>
		</clipPath>
		<g clip-path="url(#SVGID_26_)">
			<g>
			</g>
			<g>
			</g>
		</g>
	</g>
	<g>
		<defs>
			<path id="SVGID_27_" d="M-386.843,151.533c0.005,30.96-25.107,56.063-56.09,56.067c-30.983,0.006-56.104-25.086-56.109-56.048
				c-0.006-30.944,25.081-56.041,56.049-56.068c30.978-0.033,56.117,25.034,56.15,55.988
				C-386.843,151.494-386.843,151.514-386.843,151.533z"/>
		</defs>
		<clipPath id="SVGID_28_">
			<use xlink:href="#SVGID_27_"  overflow="visible"/>
		</clipPath>
		<g clip-path="url(#SVGID_28_)">
			<g>
			</g>
			<g>
			</g>
		</g>
	</g>
	<g>
		<defs>
			<path id="SVGID_29_" d="M-323.995,87.83c-0.01,13.92-11.311,25.19-25.24,25.18c-13.91-0.02-25.18-11.31-25.16-25.22
				c0.021-13.91,11.32-25.16,25.24-25.141C-335.255,62.67-323.995,73.94-323.995,87.83z"/>
		</defs>
		<clipPath id="SVGID_30_">
			<use xlink:href="#SVGID_29_"  overflow="visible"/>
		</clipPath>
		<g clip-path="url(#SVGID_30_)">
			<g>
			</g>
			<g>
			</g>
		</g>
	</g>
	<g>
		<defs>
			<path id="SVGID_31_" d="M-323.995-13.17c-0.01,13.92-11.311,25.19-25.24,25.19c-13.91-0.03-25.18-11.32-25.16-25.23
				c0.021-13.9,11.32-25.16,25.24-25.141C-335.255-38.319-323.995-27.06-323.995-13.17z"/>
		</defs>
		<clipPath id="SVGID_32_">
			<use xlink:href="#SVGID_31_"  overflow="visible"/>
		</clipPath>
		<g clip-path="url(#SVGID_32_)">
			<g>
			</g>
			<g>
			</g>
		</g>
	</g>
	<g>
		<defs>
			<path id="SVGID_33_" d="M-273.495,37.33c-0.01,13.899-11.29,25.16-25.2,25.18c-13.92,0-25.2-11.28-25.2-25.18
				c0-13.91,11.28-25.181,25.2-25.181S-273.495,23.42-273.495,37.33z"/>
		</defs>
		<clipPath id="SVGID_34_">
			<use xlink:href="#SVGID_33_"  overflow="visible"/>
		</clipPath>
		<g clip-path="url(#SVGID_34_)">
			<g>
			</g>
			<g>
			</g>
		</g>
	</g>
	<g>
		<defs>
			<path id="SVGID_35_" d="M-374.565,37.33c-0.01,13.899-11.29,25.17-25.21,25.18c-13.91-0.01-25.19-11.29-25.19-25.19
				c0.011-13.909,11.29-25.18,25.211-25.17C-385.835,12.149-374.565,23.42-374.565,37.33z"/>
		</defs>
		<clipPath id="SVGID_36_">
			<use xlink:href="#SVGID_35_"  overflow="visible"/>
		</clipPath>
		<g clip-path="url(#SVGID_36_)">
			<g>
			</g>
			<g>
			</g>
		</g>
	</g>
	<g>
		<defs>
			<path id="SVGID_37_" d="M-540.383-85.612c0,0-88.909-1.07-100.539-2.998l-16.391,30.508c20.24,23.252,41.591,53.281,56.44,53.281
				h120.999c14.87,0,36.2-29.979,56.46-53.281l-16.38-30.508C-451.433-86.683-540.383-85.612-540.383-85.612z"/>
		</defs>
		<clipPath id="SVGID_38_">
			<use xlink:href="#SVGID_37_"  overflow="visible"/>
		</clipPath>
		<g clip-path="url(#SVGID_38_)">
			<g>
			</g>
			<g>
			</g>
		</g>
	</g>
	<g>
		<defs>
			<path id="SVGID_39_" d="M-166.095,286.74c-0.07,2.21-0.18,4.38-0.32,6.49c-0.141,2.119-0.33,4.189-0.54,6.209
				c-0.22,2.021-0.47,4-0.75,5.931c-7.88,53.47-41.24,72.55-60.7,79.2c-0.23,0.08-0.45,0.149-0.68,0.229
				c-0.23,0.07-0.471,0.15-0.7,0.23c-7.69,2.479-12.891,2.97-12.891,2.97c-0.279-0.07-0.569-0.14-0.859-0.22
				c-0.28-0.08-0.57-0.17-0.87-0.261c-0.3-0.09-0.59-0.189-0.89-0.3c-0.591-0.2-1.2-0.439-1.82-0.71
				c-0.311-0.13-0.62-0.27-0.94-0.41c-0.62-0.29-1.25-0.6-1.899-0.93c-0.59-0.3-1.181-0.63-1.78-0.97
				c-0.15-0.09-0.3-0.17-0.45-0.271c-0.229-0.14-0.47-0.279-0.71-0.42c-0.33-0.2-0.67-0.41-1-0.62c-2.02-1.26-4.109-2.729-6.27-4.37
				c-1.431-1.09-2.9-2.25-4.391-3.5c-0.38-0.31-0.75-0.619-1.13-0.939c-1.01-0.85-2.04-1.74-3.08-2.66
				c-0.89-0.78-1.779-1.58-2.68-2.41c-0.79-0.72-1.58-1.45-2.38-2.189c-2.391-2.221-4.83-4.57-7.32-7.041
				c-0.83-0.819-1.67-1.649-2.51-2.489c-0.23-0.22-0.46-0.45-0.68-0.681c-0.42-0.42-0.841-0.84-1.261-1.26
				c-0.62-0.629-1.25-1.27-1.88-1.91c-0.64-0.64-1.27-1.289-1.91-1.949c-1.52-1.551-3.05-3.131-4.59-4.73
				c-0.88-0.91-1.76-1.83-2.649-2.75c-0.63-0.65-1.25-1.3-1.88-1.96c-0.44-0.46-0.881-0.92-1.33-1.38
				c-0.881-0.92-1.771-1.85-2.66-2.79c-0.73-0.771-1.471-1.54-2.21-2.319c-0.46-0.471-0.92-0.951-1.37-1.431
				c-0.61-0.63-1.22-1.271-1.82-1.899c-1.82-1.891-3.64-3.801-5.479-5.711c-0.79-0.83-1.601-1.67-2.4-2.5
				c-1.05-1.069-2.09-2.149-3.14-3.229c-0.82-0.86-1.66-1.71-2.49-2.56c-0.57-0.57-1.14-1.15-1.7-1.73
				c-2.34-2.37-4.689-4.73-7.05-7.07c-1.42-1.39-2.84-2.789-4.26-4.17c-0.91-0.89-1.82-1.77-2.74-2.64
				c-0.04-0.03-0.08-0.07-0.11-0.101c-6.18-5.899-12.41-11.539-18.63-16.689c-17.229-14.24-34.399-24.72-50.35-26.58
				c-0.45-0.05-0.891-0.09-1.33-0.13c0,0,0,0,0-0.01c-0.04-0.41-1.11-11.67,3.729-15.601c4.931-4,174.341-138.01,177.841-166.01
				c3.449-27.58-44.69-124.03-46.15-126.931c-0.021-0.049-0.03-0.069-0.03-0.069c3.09,1.42,6.01,3.19,8.7,5.271
				c2.49,1.979,4.7,4.25,6.6,6.77c0.28,0.35,0.551,0.71,0.801,1.08c0.25,0.359,0.51,0.73,0.75,1.1c0.239,0.35,0.46,0.711,0.68,1.07
				c0.13,0.2,0.25,0.4,0.36,0.609c0.18,0.291,0.34,0.58,0.5,0.871c0.21,0.369,0.409,0.739,0.6,1.119c0.57,1.12,1.09,2.28,1.55,3.461
				c8.521,21.159,16.33,41.27,23.48,60.369c0,0.01,0,0.021,0.01,0.03c1.58,4.24,3.13,8.42,4.65,12.56c0,0.01,0,0.03,0.01,0.041
				c5.31,14.5,10.23,28.399,14.76,41.719c0,0.021,0.01,0.041,0.02,0.07c1.281,3.78,2.541,7.53,3.771,11.221
				c0,0.02,0.011,0.05,0.021,0.07c1.22,3.689,2.41,7.34,3.58,10.939c0,0.029,0.01,0.05,0.02,0.07c1.16,3.6,2.28,7.149,3.391,10.66
				c0,0.02,0.01,0.049,0.02,0.08C-174.524,194.34-164.925,248.49-166.095,286.74z"/>
		</defs>
		<clipPath id="SVGID_40_">
			<use xlink:href="#SVGID_39_"  overflow="visible"/>
		</clipPath>
		<g clip-path="url(#SVGID_40_)">
			<g>
			</g>
			<g>
			</g>
		</g>
	</g>
	<g>
		<defs>
			<path id="SVGID_41_" d="M-674.426,259.12C-730.915,264-803.105,379.56-839.325,388c0,0-73.67-6.91-76.58-101.26
				c-1.83-59.97,22.8-159.011,85.55-314.89c2.46-6.311,6.55-11.86,11.84-16.08c2.69-2.08,5.61-3.851,8.7-5.271
				c0,0-49.68,99-46.18,127s172.91,162.01,177.84,166.01S-674.426,259.12-674.426,259.12z"/>
		</defs>
		<clipPath id="SVGID_42_">
			<use xlink:href="#SVGID_41_"  overflow="visible"/>
		</clipPath>
		<g clip-path="url(#SVGID_42_)">
			<g>
			</g>
			<g>
			</g>
		</g>
	</g>
</g>
<rect x="10.192" y="29.047" fill="#5D5D5D" width="8.532" height="8.467"/>
<path fill="#231F20" d="M18.235,29.543v7.464h-7.534v-7.464H18.235 M19.234,28.55H9.702V38h9.522v-9.45H19.234z"/>
<rect x="10.192" y="10.384" fill="#C4F932" width="8.532" height="8.478"/>
<path fill="#231F20" d="M18.235,10.88v7.476h-7.534V10.88H18.235 M19.234,9.887H9.702v9.461h9.522V9.887H19.234z"/>
<rect x="28.966" y="10.384" fill="#5D5D5D" width="8.534" height="8.478"/>
<path fill="#231F20" d="M37.001,10.88v7.476h-7.525V10.88H37.001 M38,9.887h-9.523v9.461H38V9.887z"/>
<rect x="28.966" y="29.047" fill="#5D5D5D" width="8.534" height="8.467"/>
<path fill="#231F20" d="M37.001,29.543v7.464h-7.525v-7.464H37.001 M38,28.55h-9.523V38H38V28.55z"/>
</svg>
