<?xml version="1.0" encoding="utf-8"?>
<!-- Generator: Adobe Illustrator 16.0.0, SVG Export Plug-In . SVG Version: 6.00 Build 0)  -->
<!DOCTYPE svg PUBLIC "-//W3C//DTD SVG 1.1//EN" "http://www.w3.org/Graphics/SVG/1.1/DTD/svg11.dtd">
<svg version="1.1" id="Layer_1" xmlns="http://www.w3.org/2000/svg" xmlns:xlink="http://www.w3.org/1999/xlink" x="0px" y="0px"
	 width="67px" height="33px" viewBox="0 0 67 33" enable-background="new 0 0 67 33" xml:space="preserve">
<path fill="#5D5D5D" d="M67,16.49c0,9.106-7.272,16.49-16.24,16.49c-8.97,0-16.241-7.384-16.241-16.49C34.519,7.383,41.79,0,50.76,0
	C59.726,0.006,66.994,7.385,67,16.49z"/>
<g>
	<rect x="43.496" y="11.758" fill="#E56EBB" width="14.486" height="1.588"/>
	<rect x="43.496" y="15.772" fill="#E56EBB" width="14.486" height="1.589"/>
	<rect x="43.496" y="19.676" fill="#E56EBB" width="14.486" height="1.565"/>
</g>
<path fill="#5D5D5D" d="M32.501,16.49C32.507,25.603,25.235,32.994,16.26,33C7.286,33.006,0.005,25.622,0,16.51
	C-0.006,7.397,7.266,0.006,16.24,0c0.003,0,0.007,0,0.01,0c8.964-0.011,16.24,7.357,16.25,16.459
	C32.501,16.47,32.501,16.479,32.501,16.49z"/>
<g>
	<polygon fill="#E56EBB" points="13.718,16.388 10.662,16.388 10.662,12.516 16.18,12.516 16.18,13.868 17.996,13.868 
		17.996,10.733 9.028,10.733 9.028,18.303 13.718,18.303 	"/>
	<path fill="#E56EBB" d="M14.475,14.503v7.773h9.079v-7.773H14.475z M21.698,20.434H16.18v-4.046h5.518V20.434z"/>
</g>
</svg>
